<svg width="427" height="71" viewBox="0 0 427 71" fill="none" xmlns="http://www.w3.org/2000/svg">
<path d="M7.92614 35L0.767045 8.81818H3.98864L9.46023 30.142H9.71591L15.2898 8.81818H18.8693L24.4432 30.142H24.6989L30.1705 8.81818H33.392L26.233 35H22.9602L17.1818 14.1364H16.9773L11.1989 35H7.92614ZM43.3381 35.4091C41.446 35.4091 39.8139 34.9915 38.4418 34.1562C37.0781 33.3125 36.0256 32.1364 35.2841 30.6278C34.5511 29.1108 34.1847 27.3466 34.1847 25.3352C34.1847 23.3239 34.5511 21.5511 35.2841 20.017C36.0256 18.4744 37.0568 17.2727 38.3778 16.4119C39.7074 15.5426 41.2585 15.108 43.0312 15.108C44.054 15.108 45.0639 15.2784 46.0611 15.6193C47.0582 15.9602 47.9659 16.5142 48.7841 17.2812C49.6023 18.0398 50.2543 19.0455 50.7401 20.2983C51.2259 21.5511 51.4688 23.0937 51.4688 24.9261V26.2045H36.3324V23.5966H48.4006C48.4006 22.4886 48.179 21.5 47.7358 20.6307C47.3011 19.7614 46.679 19.0753 45.8693 18.5724C45.0682 18.0696 44.1222 17.8182 43.0312 17.8182C41.8295 17.8182 40.7898 18.1165 39.9119 18.7131C39.0426 19.3011 38.3736 20.0682 37.9048 21.0142C37.4361 21.9602 37.2017 22.9744 37.2017 24.0568V25.7955C37.2017 27.2784 37.4574 28.5355 37.9688 29.5668C38.4886 30.5895 39.2088 31.3693 40.1293 31.9062C41.0497 32.4347 42.1193 32.6989 43.3381 32.6989C44.1307 32.6989 44.8466 32.5881 45.4858 32.3665C46.1335 32.1364 46.6918 31.7955 47.1605 31.3438C47.6293 30.8835 47.9915 30.3125 48.2472 29.6307L51.1619 30.4489C50.8551 31.4375 50.3395 32.3068 49.6151 33.0568C48.8906 33.7983 47.9957 34.3778 46.9304 34.7955C45.8651 35.2045 44.6676 35.4091 43.3381 35.4091ZM59.0753 8.81818V35H56.0582V8.81818H59.0753ZM72.5785 35.4091C70.7376 35.4091 69.1523 34.9744 67.8228 34.1051C66.4933 33.2358 65.4705 32.0384 64.7546 30.5128C64.0387 28.9872 63.6808 27.2443 63.6808 25.2841C63.6808 23.2898 64.0472 21.5298 64.7802 20.0043C65.5217 18.4702 66.5529 17.2727 67.8739 16.4119C69.2035 15.5426 70.7546 15.108 72.5273 15.108C73.908 15.108 75.1523 15.3636 76.2603 15.875C77.3683 16.3864 78.2759 17.1023 78.9833 18.0227C79.6907 18.9432 80.1296 20.017 80.3001 21.2443H77.283C77.0529 20.3494 76.5415 19.5568 75.7489 18.8665C74.9648 18.1676 73.908 17.8182 72.5785 17.8182C71.4023 17.8182 70.3711 18.125 69.4847 18.7386C68.6069 19.3437 67.9208 20.2003 67.4265 21.3082C66.9407 22.4077 66.6978 23.6989 66.6978 25.1818C66.6978 26.6989 66.9364 28.0199 67.4137 29.1449C67.8995 30.2699 68.5813 31.1435 69.4592 31.7656C70.3455 32.3878 71.3853 32.6989 72.5785 32.6989C73.3626 32.6989 74.0742 32.5625 74.7134 32.2898C75.3526 32.017 75.8938 31.625 76.337 31.1136C76.7802 30.6023 77.0955 29.9886 77.283 29.2727H80.3001C80.1296 30.4318 79.7077 31.4759 79.0344 32.4048C78.3697 33.3253 77.4876 34.0582 76.3881 34.6037C75.2972 35.1406 74.0273 35.4091 72.5785 35.4091ZM92.6879 35.4091C90.9151 35.4091 89.3597 34.9872 88.0217 34.1435C86.6921 33.2997 85.6523 32.1193 84.9023 30.6023C84.1609 29.0852 83.7901 27.3125 83.7901 25.2841C83.7901 23.2386 84.1609 21.4531 84.9023 19.9276C85.6523 18.402 86.6921 17.2173 88.0217 16.3736C89.3597 15.5298 90.9151 15.108 92.6879 15.108C94.4606 15.108 96.0117 15.5298 97.3413 16.3736C98.6793 17.2173 99.7191 18.402 100.461 19.9276C101.211 21.4531 101.586 23.2386 101.586 25.2841C101.586 27.3125 101.211 29.0852 100.461 30.6023C99.7191 32.1193 98.6793 33.2997 97.3413 34.1435C96.0117 34.9872 94.4606 35.4091 92.6879 35.4091ZM92.6879 32.6989C94.0344 32.6989 95.1424 32.3537 96.0117 31.6634C96.881 30.973 97.5245 30.0653 97.9421 28.9403C98.3597 27.8153 98.5685 26.5966 98.5685 25.2841C98.5685 23.9716 98.3597 22.7486 97.9421 21.6151C97.5245 20.4815 96.881 19.5653 96.0117 18.8665C95.1424 18.1676 94.0344 17.8182 92.6879 17.8182C91.3413 17.8182 90.2333 18.1676 89.364 18.8665C88.4947 19.5653 87.8512 20.4815 87.4336 21.6151C87.016 22.7486 86.8072 23.9716 86.8072 25.2841C86.8072 26.5966 87.016 27.8153 87.4336 28.9403C87.8512 30.0653 88.4947 30.973 89.364 31.6634C90.2333 32.3537 91.3413 32.6989 92.6879 32.6989ZM106.191 35V15.3636H109.106V18.4318H109.362C109.771 17.3835 110.431 16.5696 111.343 15.9901C112.255 15.402 113.35 15.108 114.629 15.108C115.924 15.108 117.002 15.402 117.863 15.9901C118.732 16.5696 119.41 17.3835 119.896 18.4318H120.1C120.603 17.4176 121.357 16.6122 122.363 16.0156C123.369 15.4105 124.575 15.108 125.981 15.108C127.737 15.108 129.173 15.6577 130.289 16.7571C131.406 17.848 131.964 19.5483 131.964 21.858V35H128.947V21.858C128.947 20.4091 128.55 19.3736 127.758 18.7514C126.965 18.1293 126.032 17.8182 124.958 17.8182C123.577 17.8182 122.508 18.2358 121.749 19.071C120.991 19.8977 120.612 20.946 120.612 22.2159V35H117.543V21.5511C117.543 20.4347 117.181 19.5355 116.457 18.8537C115.732 18.1634 114.799 17.8182 113.657 17.8182C112.873 17.8182 112.14 18.027 111.458 18.4446C110.785 18.8622 110.239 19.4418 109.822 20.1832C109.413 20.9162 109.208 21.7642 109.208 22.7273V35H106.191ZM145.713 35.4091C143.821 35.4091 142.189 34.9915 140.817 34.1562C139.453 33.3125 138.401 32.1364 137.659 30.6278C136.926 29.1108 136.56 27.3466 136.56 25.3352C136.56 23.3239 136.926 21.5511 137.659 20.017C138.401 18.4744 139.432 17.2727 140.753 16.4119C142.082 15.5426 143.634 15.108 145.406 15.108C146.429 15.108 147.439 15.2784 148.436 15.6193C149.433 15.9602 150.341 16.5142 151.159 17.2812C151.977 18.0398 152.629 19.0455 153.115 20.2983C153.601 21.5511 153.844 23.0937 153.844 24.9261V26.2045H138.707V23.5966H150.776C150.776 22.4886 150.554 21.5 150.111 20.6307C149.676 19.7614 149.054 19.0753 148.244 18.5724C147.443 18.0696 146.497 17.8182 145.406 17.8182C144.205 17.8182 143.165 18.1165 142.287 18.7131C141.418 19.3011 140.749 20.0682 140.28 21.0142C139.811 21.9602 139.577 22.9744 139.577 24.0568V25.7955C139.577 27.2784 139.832 28.5355 140.344 29.5668C140.864 30.5895 141.584 31.3693 142.504 31.9062C143.425 32.4347 144.494 32.6989 145.713 32.6989C146.506 32.6989 147.222 32.5881 147.861 32.3665C148.509 32.1364 149.067 31.7955 149.536 31.3438C150.004 30.8835 150.366 30.3125 150.622 29.6307L153.537 30.4489C153.23 31.4375 152.714 32.3068 151.99 33.0568C151.266 33.7983 150.371 34.3778 149.305 34.7955C148.24 35.2045 147.043 35.4091 145.713 35.4091ZM177.098 15.3636V17.9205H166.922V15.3636H177.098ZM169.888 10.6591H172.905V29.375C172.905 30.2273 173.028 30.8665 173.276 31.2926C173.531 31.7102 173.855 31.9915 174.247 32.1364C174.648 32.2727 175.07 32.3409 175.513 32.3409C175.845 32.3409 176.118 32.3239 176.331 32.2898C176.544 32.2472 176.714 32.2131 176.842 32.1875L177.456 34.8977C177.251 34.9744 176.966 35.0511 176.599 35.1278C176.233 35.2131 175.768 35.2557 175.206 35.2557C174.354 35.2557 173.518 35.0724 172.7 34.706C171.891 34.3395 171.217 33.7812 170.68 33.0312C170.152 32.2812 169.888 31.3352 169.888 30.1932V10.6591ZM189.403 35.4091C187.63 35.4091 186.075 34.9872 184.737 34.1435C183.407 33.2997 182.367 32.1193 181.617 30.6023C180.876 29.0852 180.505 27.3125 180.505 25.2841C180.505 23.2386 180.876 21.4531 181.617 19.9276C182.367 18.402 183.407 17.2173 184.737 16.3736C186.075 15.5298 187.63 15.108 189.403 15.108C191.175 15.108 192.727 15.5298 194.056 16.3736C195.394 17.2173 196.434 18.402 197.175 19.9276C197.925 21.4531 198.3 23.2386 198.3 25.2841C198.3 27.3125 197.925 29.0852 197.175 30.6023C196.434 32.1193 195.394 33.2997 194.056 34.1435C192.727 34.9872 191.175 35.4091 189.403 35.4091ZM189.403 32.6989C190.749 32.6989 191.857 32.3537 192.727 31.6634C193.596 30.973 194.239 30.0653 194.657 28.9403C195.075 27.8153 195.283 26.5966 195.283 25.2841C195.283 23.9716 195.075 22.7486 194.657 21.6151C194.239 20.4815 193.596 19.5653 192.727 18.8665C191.857 18.1676 190.749 17.8182 189.403 17.8182C188.056 17.8182 186.948 18.1676 186.079 18.8665C185.21 19.5653 184.566 20.4815 184.148 21.6151C183.731 22.7486 183.522 23.9716 183.522 25.2841C183.522 26.5966 183.731 27.8153 184.148 28.9403C184.566 30.0653 185.21 30.973 186.079 31.6634C186.948 32.3537 188.056 32.6989 189.403 32.6989ZM213.44 35V8.81818H216.61V20.4773H230.571V8.81818H233.741V35H230.571V23.2898H216.61V35H213.44ZM245.458 35.4602C244.213 35.4602 243.084 35.2259 242.07 34.7571C241.056 34.2798 240.25 33.5938 239.654 32.6989C239.057 31.7955 238.759 30.7045 238.759 29.4261C238.759 28.3011 238.98 27.3892 239.424 26.6903C239.867 25.983 240.459 25.429 241.201 25.0284C241.942 24.6278 242.76 24.3295 243.655 24.1335C244.559 23.929 245.466 23.767 246.378 23.6477C247.571 23.4943 248.539 23.3793 249.28 23.3026C250.03 23.2173 250.576 23.0767 250.917 22.8807C251.266 22.6847 251.441 22.3437 251.441 21.858V21.7557C251.441 20.4943 251.096 19.5142 250.405 18.8153C249.723 18.1165 248.688 17.767 247.299 17.767C245.858 17.767 244.729 18.0824 243.911 18.7131C243.093 19.3437 242.517 20.017 242.185 20.733L239.321 19.7102C239.833 18.517 240.515 17.5881 241.367 16.9233C242.228 16.25 243.165 15.7812 244.179 15.517C245.202 15.2443 246.208 15.108 247.196 15.108C247.827 15.108 248.551 15.1847 249.37 15.3381C250.196 15.483 250.993 15.7855 251.76 16.2457C252.536 16.706 253.179 17.4006 253.691 18.3295C254.202 19.2585 254.458 20.5028 254.458 22.0625V35H251.441V32.3409H251.287C251.083 32.767 250.742 33.223 250.265 33.7088C249.787 34.1946 249.152 34.608 248.36 34.9489C247.567 35.2898 246.6 35.4602 245.458 35.4602ZM245.918 32.75C247.111 32.75 248.117 32.5156 248.935 32.0469C249.762 31.5781 250.384 30.973 250.801 30.2315C251.228 29.4901 251.441 28.7102 251.441 27.892V25.1307C251.313 25.2841 251.032 25.4247 250.597 25.5526C250.171 25.6719 249.676 25.7784 249.114 25.8722C248.56 25.9574 248.019 26.0341 247.49 26.1023C246.971 26.1619 246.549 26.2131 246.225 26.2557C245.441 26.358 244.708 26.5241 244.026 26.7543C243.353 26.9759 242.807 27.3125 242.39 27.7642C241.98 28.2074 241.776 28.8125 241.776 29.5795C241.776 30.6278 242.164 31.4205 242.939 31.9574C243.723 32.4858 244.716 32.75 245.918 32.75ZM267.942 35.4091C266.101 35.4091 264.516 34.9744 263.186 34.1051C261.857 33.2358 260.834 32.0384 260.118 30.5128C259.402 28.9872 259.044 27.2443 259.044 25.2841C259.044 23.2898 259.411 21.5298 260.143 20.0043C260.885 18.4702 261.916 17.2727 263.237 16.4119C264.567 15.5426 266.118 15.108 267.891 15.108C269.271 15.108 270.516 15.3636 271.624 15.875C272.732 16.3864 273.639 17.1023 274.347 18.0227C275.054 18.9432 275.493 20.017 275.663 21.2443H272.646C272.416 20.3494 271.905 19.5568 271.112 18.8665C270.328 18.1676 269.271 17.8182 267.942 17.8182C266.766 17.8182 265.734 18.125 264.848 18.7386C263.97 19.3437 263.284 20.2003 262.79 21.3082C262.304 22.4077 262.061 23.6989 262.061 25.1818C262.061 26.6989 262.3 28.0199 262.777 29.1449C263.263 30.2699 263.945 31.1435 264.822 31.7656C265.709 32.3878 266.749 32.6989 267.942 32.6989C268.726 32.6989 269.438 32.5625 270.077 32.2898C270.716 32.017 271.257 31.625 271.7 31.1136C272.143 30.6023 272.459 29.9886 272.646 29.2727H275.663C275.493 30.4318 275.071 31.4759 274.398 32.4048C273.733 33.3253 272.851 34.0582 271.751 34.6037C270.661 35.1406 269.391 35.4091 267.942 35.4091ZM282.886 27.8409L282.835 24.108H283.449L292.04 15.3636H295.773L286.619 24.6193H286.364L282.886 27.8409ZM280.074 35V8.81818H283.091V35H280.074ZM292.551 35L284.881 25.2841L287.028 23.1875L296.386 35H292.551ZM307.08 35.4091C305.188 35.4091 303.556 34.9915 302.184 34.1562C300.82 33.3125 299.768 32.1364 299.026 30.6278C298.293 29.1108 297.927 27.3466 297.927 25.3352C297.927 23.3239 298.293 21.5511 299.026 20.017C299.768 18.4744 300.799 17.2727 302.12 16.4119C303.45 15.5426 305.001 15.108 306.773 15.108C307.796 15.108 308.806 15.2784 309.803 15.6193C310.8 15.9602 311.708 16.5142 312.526 17.2812C313.344 18.0398 313.996 19.0455 314.482 20.2983C314.968 21.5511 315.211 23.0937 315.211 24.9261V26.2045H300.075V23.5966H312.143C312.143 22.4886 311.921 21.5 311.478 20.6307C311.043 19.7614 310.421 19.0753 309.612 18.5724C308.81 18.0696 307.864 17.8182 306.773 17.8182C305.572 17.8182 304.532 18.1165 303.654 18.7131C302.785 19.3011 302.116 20.0682 301.647 21.0142C301.178 21.9602 300.944 22.9744 300.944 24.0568V25.7955C300.944 27.2784 301.2 28.5355 301.711 29.5668C302.231 30.5895 302.951 31.3693 303.871 31.9062C304.792 32.4347 305.862 32.6989 307.08 32.6989C307.873 32.6989 308.589 32.5881 309.228 32.3665C309.876 32.1364 310.434 31.7955 310.903 31.3438C311.371 30.8835 311.734 30.3125 311.989 29.6307L314.904 30.4489C314.597 31.4375 314.082 32.3068 313.357 33.0568C312.633 33.7983 311.738 34.3778 310.673 34.7955C309.607 35.2045 308.41 35.4091 307.08 35.4091ZM319.8 35V15.3636H322.715V18.3295H322.92C323.278 17.358 323.925 16.5696 324.863 15.9645C325.8 15.3594 326.857 15.0568 328.033 15.0568C328.255 15.0568 328.532 15.0611 328.864 15.0696C329.197 15.0781 329.448 15.0909 329.619 15.108V18.1761C329.516 18.1506 329.282 18.1122 328.915 18.0611C328.558 18.0014 328.178 17.9716 327.778 17.9716C326.823 17.9716 325.971 18.1719 325.221 18.5724C324.479 18.9645 323.891 19.5099 323.457 20.2088C323.031 20.8991 322.817 21.6875 322.817 22.5739V35H319.8ZM354.365 8.81818V35H351.297L337.03 14.4432H336.775V35H333.604V8.81818H336.672L350.99 29.4261H351.246V8.81818H354.365ZM368.533 35.4091C366.641 35.4091 365.009 34.9915 363.637 34.1562C362.273 33.3125 361.221 32.1364 360.479 30.6278C359.746 29.1108 359.38 27.3466 359.38 25.3352C359.38 23.3239 359.746 21.5511 360.479 20.017C361.221 18.4744 362.252 17.2727 363.573 16.4119C364.903 15.5426 366.454 15.108 368.227 15.108C369.249 15.108 370.259 15.2784 371.256 15.6193C372.254 15.9602 373.161 16.5142 373.979 17.2812C374.798 18.0398 375.45 19.0455 375.935 20.2983C376.421 21.5511 376.664 23.0937 376.664 24.9261V26.2045H361.528V23.5966H373.596C373.596 22.4886 373.374 21.5 372.931 20.6307C372.496 19.7614 371.874 19.0753 371.065 18.5724C370.263 18.0696 369.317 17.8182 368.227 17.8182C367.025 17.8182 365.985 18.1165 365.107 18.7131C364.238 19.3011 363.569 20.0682 363.1 21.0142C362.631 21.9602 362.397 22.9744 362.397 24.0568V25.7955C362.397 27.2784 362.653 28.5355 363.164 29.5668C363.684 30.5895 364.404 31.3693 365.325 31.9062C366.245 32.4347 367.315 32.6989 368.533 32.6989C369.326 32.6989 370.042 32.5881 370.681 32.3665C371.329 32.1364 371.887 31.7955 372.356 31.3438C372.825 30.8835 373.187 30.3125 373.442 29.6307L376.357 30.4489C376.05 31.4375 375.535 32.3068 374.81 33.0568C374.086 33.7983 373.191 34.3778 372.126 34.7955C371.06 35.2045 369.863 35.4091 368.533 35.4091ZM385.702 35L379.719 15.3636H382.89L387.134 30.3977H387.339L391.532 15.3636H394.754L398.896 30.3466H399.1L403.344 15.3636H406.515L400.532 35H397.566L393.271 19.9148H392.964L388.668 35H385.702ZM424.413 19.7614L421.702 20.5284C421.532 20.0767 421.281 19.6378 420.948 19.2116C420.624 18.777 420.181 18.419 419.619 18.1378C419.056 17.8565 418.336 17.7159 417.458 17.7159C416.256 17.7159 415.255 17.9929 414.454 18.5469C413.661 19.0923 413.265 19.7869 413.265 20.6307C413.265 21.3807 413.538 21.973 414.083 22.4077C414.629 22.8423 415.481 23.2045 416.64 23.4943L419.555 24.2102C421.31 24.6364 422.619 25.2884 423.479 26.1662C424.34 27.0355 424.771 28.1562 424.771 29.5284C424.771 30.6534 424.447 31.6591 423.799 32.5455C423.16 33.4318 422.265 34.1307 421.114 34.642C419.964 35.1534 418.626 35.4091 417.1 35.4091C415.097 35.4091 413.44 34.9744 412.127 34.1051C410.815 33.2358 409.984 31.9659 409.634 30.2955L412.498 29.5795C412.771 30.6364 413.286 31.429 414.045 31.9574C414.812 32.4858 415.813 32.75 417.049 32.75C418.455 32.75 419.572 32.4517 420.398 31.8551C421.234 31.25 421.651 30.5256 421.651 29.6818C421.651 29 421.413 28.429 420.935 27.9688C420.458 27.5 419.725 27.1506 418.737 26.9205L415.464 26.1534C413.665 25.7273 412.344 25.0668 411.501 24.1719C410.665 23.2685 410.248 22.1392 410.248 20.7841C410.248 19.6761 410.559 18.696 411.181 17.8438C411.812 16.9915 412.668 16.3224 413.751 15.8366C414.842 15.3509 416.077 15.108 417.458 15.108C419.401 15.108 420.927 15.5341 422.035 16.3864C423.151 17.2386 423.944 18.3636 424.413 19.7614Z" fill="#A9A9A9"/>
<path d="M109.87 66V52.1818H114.539C115.623 52.1818 116.509 52.3775 117.197 52.7688C117.89 53.1557 118.402 53.6797 118.735 54.3409C119.068 55.0021 119.235 55.7398 119.235 56.554C119.235 57.3681 119.068 58.1081 118.735 58.7738C118.407 59.4395 117.899 59.9703 117.21 60.3661C116.522 60.7575 115.641 60.9531 114.566 60.9531H111.219V59.4688H114.512C115.254 59.4688 115.85 59.3406 116.3 59.0842C116.749 58.8278 117.076 58.4814 117.278 58.0451C117.485 57.6043 117.588 57.1072 117.588 56.554C117.588 56.0007 117.485 55.5059 117.278 55.0696C117.076 54.6333 116.747 54.2914 116.293 54.044C115.839 53.7921 115.236 53.6662 114.485 53.6662H111.543V66H109.87ZM123.307 52.1818V66H121.714V52.1818H123.307ZM130.568 66.2159C129.57 66.2159 128.708 65.9955 127.984 65.5547C127.264 65.1094 126.709 64.4886 126.317 63.6925C125.931 62.8918 125.737 61.9607 125.737 60.8991C125.737 59.8376 125.931 58.902 126.317 58.0923C126.709 57.2782 127.253 56.6439 127.95 56.1896C128.652 55.7308 129.471 55.5014 130.406 55.5014C130.946 55.5014 131.479 55.5914 132.005 55.7713C132.532 55.9512 133.011 56.2436 133.442 56.6484C133.874 57.0488 134.218 57.5795 134.475 58.2408C134.731 58.902 134.859 59.7161 134.859 60.6832V61.358H126.871V59.9815H133.24C133.24 59.3968 133.123 58.875 132.889 58.4162C132.66 57.9574 132.331 57.5953 131.904 57.3299C131.481 57.0645 130.982 56.9318 130.406 56.9318C129.772 56.9318 129.223 57.0893 128.76 57.4041C128.301 57.7145 127.948 58.1193 127.701 58.6186C127.453 59.1179 127.33 59.6532 127.33 60.2244V61.142C127.33 61.9247 127.464 62.5882 127.734 63.1325C128.009 63.6722 128.389 64.0838 128.875 64.3672C129.36 64.6461 129.925 64.7855 130.568 64.7855C130.987 64.7855 131.364 64.727 131.702 64.6101C132.044 64.4886 132.338 64.3087 132.586 64.0703C132.833 63.8274 133.024 63.526 133.159 63.1662L134.697 63.598C134.536 64.1198 134.263 64.5786 133.881 64.9744C133.499 65.3658 133.026 65.6716 132.464 65.892C131.902 66.108 131.27 66.2159 130.568 66.2159ZM140.331 66.2429C139.675 66.2429 139.079 66.1192 138.543 65.8718C138.008 65.6199 137.583 65.2578 137.268 64.7855C136.953 64.3087 136.796 63.733 136.796 63.0582C136.796 62.4645 136.913 61.9832 137.147 61.6143C137.381 61.241 137.693 60.9486 138.085 60.7372C138.476 60.5258 138.908 60.3684 139.38 60.2649C139.857 60.157 140.336 60.0715 140.817 60.0085C141.447 59.9276 141.957 59.8668 142.349 59.8263C142.745 59.7814 143.032 59.7071 143.212 59.6037C143.397 59.5002 143.489 59.3203 143.489 59.0639V59.0099C143.489 58.3442 143.307 57.8269 142.942 57.4581C142.583 57.0893 142.036 56.9048 141.303 56.9048C140.543 56.9048 139.947 57.0713 139.515 57.4041C139.083 57.737 138.779 58.0923 138.604 58.4702L137.093 57.9304C137.363 57.3007 137.722 56.8104 138.172 56.4595C138.627 56.1042 139.121 55.8568 139.657 55.7173C140.196 55.5734 140.727 55.5014 141.249 55.5014C141.582 55.5014 141.964 55.5419 142.396 55.6229C142.832 55.6993 143.253 55.859 143.658 56.1019C144.067 56.3448 144.407 56.7114 144.676 57.2017C144.946 57.692 145.081 58.3487 145.081 59.1719V66H143.489V64.5966H143.408C143.3 64.8215 143.12 65.0621 142.868 65.3185C142.616 65.5749 142.281 65.7931 141.863 65.973C141.445 66.1529 140.934 66.2429 140.331 66.2429ZM140.574 64.8125C141.204 64.8125 141.735 64.6888 142.167 64.4414C142.603 64.194 142.931 63.8746 143.152 63.4833C143.377 63.092 143.489 62.6804 143.489 62.2486V60.7912C143.422 60.8722 143.273 60.9464 143.044 61.0138C142.819 61.0768 142.558 61.133 142.261 61.1825C141.969 61.2275 141.683 61.268 141.404 61.304C141.13 61.3355 140.907 61.3625 140.736 61.3849C140.322 61.4389 139.935 61.5266 139.576 61.6481C139.22 61.765 138.932 61.9427 138.712 62.1811C138.496 62.415 138.388 62.7344 138.388 63.1392C138.388 63.6925 138.593 64.1108 139.002 64.3942C139.416 64.6731 139.94 64.8125 140.574 64.8125ZM155.329 57.9574L153.898 58.3622C153.808 58.1238 153.676 57.8922 153.5 57.6673C153.329 57.4379 153.095 57.2489 152.798 57.1005C152.502 56.9521 152.121 56.8778 151.658 56.8778C151.024 56.8778 150.495 57.024 150.073 57.3164C149.654 57.6043 149.445 57.9709 149.445 58.4162C149.445 58.812 149.589 59.1246 149.877 59.354C150.165 59.5835 150.615 59.7746 151.226 59.9276L152.765 60.3054C153.691 60.5303 154.382 60.8744 154.836 61.3377C155.29 61.7965 155.517 62.388 155.517 63.1122C155.517 63.706 155.347 64.2367 155.005 64.7045C154.667 65.1723 154.195 65.5412 153.588 65.8111C152.981 66.081 152.274 66.2159 151.469 66.2159C150.412 66.2159 149.537 65.9865 148.845 65.5277C148.152 65.0689 147.713 64.3987 147.529 63.517L149.04 63.1392C149.184 63.697 149.456 64.1153 149.857 64.3942C150.261 64.6731 150.79 64.8125 151.442 64.8125C152.184 64.8125 152.774 64.6551 153.21 64.3402C153.651 64.0208 153.871 63.6385 153.871 63.1932C153.871 62.8333 153.745 62.532 153.493 62.2891C153.241 62.0417 152.855 61.8572 152.333 61.7358L150.606 61.331C149.656 61.1061 148.959 60.7575 148.514 60.2852C148.073 59.8084 147.853 59.2124 147.853 58.4972C147.853 57.9124 148.017 57.3951 148.345 56.9453C148.678 56.4955 149.13 56.1424 149.701 55.886C150.277 55.6296 150.929 55.5014 151.658 55.5014C152.684 55.5014 153.489 55.7263 154.074 56.1761C154.663 56.6259 155.081 57.2197 155.329 57.9574ZM162.26 66.2159C161.261 66.2159 160.4 65.9955 159.675 65.5547C158.956 65.1094 158.4 64.4886 158.009 63.6925C157.622 62.8918 157.429 61.9607 157.429 60.8991C157.429 59.8376 157.622 58.902 158.009 58.0923C158.4 57.2782 158.944 56.6439 159.642 56.1896C160.343 55.7308 161.162 55.5014 162.098 55.5014C162.637 55.5014 163.17 55.5914 163.697 55.7713C164.223 55.9512 164.702 56.2436 165.134 56.6484C165.566 57.0488 165.91 57.5795 166.166 58.2408C166.423 58.902 166.551 59.7161 166.551 60.6832V61.358H158.562V59.9815H164.931C164.931 59.3968 164.815 58.875 164.581 58.4162C164.351 57.9574 164.023 57.5953 163.596 57.3299C163.173 57.0645 162.673 56.9318 162.098 56.9318C161.463 56.9318 160.915 57.0893 160.451 57.4041C159.993 57.7145 159.639 58.1193 159.392 58.6186C159.145 59.1179 159.021 59.6532 159.021 60.2244V61.142C159.021 61.9247 159.156 62.5882 159.426 63.1325C159.7 63.6722 160.08 64.0838 160.566 64.3672C161.052 64.6461 161.616 64.7855 162.26 64.7855C162.678 64.7855 163.056 64.727 163.393 64.6101C163.735 64.4886 164.03 64.3087 164.277 64.0703C164.524 63.8274 164.716 63.526 164.85 63.1662L166.389 63.598C166.227 64.1198 165.955 64.5786 165.572 64.9744C165.19 65.3658 164.718 65.6716 164.156 65.892C163.593 66.108 162.961 66.2159 162.26 66.2159ZM181.658 57.9574L180.227 58.3622C180.137 58.1238 180.005 57.8922 179.829 57.6673C179.658 57.4379 179.424 57.2489 179.127 57.1005C178.831 56.9521 178.451 56.8778 177.987 56.8778C177.353 56.8778 176.824 57.024 176.402 57.3164C175.983 57.6043 175.774 57.9709 175.774 58.4162C175.774 58.812 175.918 59.1246 176.206 59.354C176.494 59.5835 176.944 59.7746 177.555 59.9276L179.094 60.3054C180.02 60.5303 180.711 60.8744 181.165 61.3377C181.619 61.7965 181.847 62.388 181.847 63.1122C181.847 63.706 181.676 64.2367 181.334 64.7045C180.996 65.1723 180.524 65.5412 179.917 65.8111C179.31 66.081 178.603 66.2159 177.798 66.2159C176.741 66.2159 175.866 65.9865 175.174 65.5277C174.481 65.0689 174.042 64.3987 173.858 63.517L175.369 63.1392C175.513 63.697 175.785 64.1153 176.186 64.3942C176.591 64.6731 177.119 64.8125 177.771 64.8125C178.513 64.8125 179.103 64.6551 179.539 64.3402C179.98 64.0208 180.2 63.6385 180.2 63.1932C180.2 62.8333 180.074 62.532 179.822 62.2891C179.571 62.0417 179.184 61.8572 178.662 61.7358L176.935 61.331C175.986 61.1061 175.288 60.7575 174.843 60.2852C174.402 59.8084 174.182 59.2124 174.182 58.4972C174.182 57.9124 174.346 57.3951 174.674 56.9453C175.007 56.4955 175.459 56.1424 176.031 55.886C176.606 55.6296 177.259 55.5014 177.987 55.5014C179.013 55.5014 179.818 55.7263 180.403 56.1761C180.992 56.6259 181.41 57.2197 181.658 57.9574ZM188.589 66.2159C187.59 66.2159 186.729 65.9955 186.005 65.5547C185.285 65.1094 184.729 64.4886 184.338 63.6925C183.951 62.8918 183.758 61.9607 183.758 60.8991C183.758 59.8376 183.951 58.902 184.338 58.0923C184.729 57.2782 185.274 56.6439 185.971 56.1896C186.672 55.7308 187.491 55.5014 188.427 55.5014C188.967 55.5014 189.5 55.5914 190.026 55.7713C190.552 55.9512 191.031 56.2436 191.463 56.6484C191.895 57.0488 192.239 57.5795 192.495 58.2408C192.752 58.902 192.88 59.7161 192.88 60.6832V61.358H184.891V59.9815H191.261C191.261 59.3968 191.144 58.875 190.91 58.4162C190.68 57.9574 190.352 57.5953 189.925 57.3299C189.502 57.0645 189.003 56.9318 188.427 56.9318C187.793 56.9318 187.244 57.0893 186.78 57.4041C186.322 57.7145 185.969 58.1193 185.721 58.6186C185.474 59.1179 185.35 59.6532 185.35 60.2244V61.142C185.35 61.9247 185.485 62.5882 185.755 63.1325C186.029 63.6722 186.409 64.0838 186.895 64.3672C187.381 64.6461 187.945 64.7855 188.589 64.7855C189.007 64.7855 189.385 64.727 189.722 64.6101C190.064 64.4886 190.359 64.3087 190.606 64.0703C190.853 63.8274 191.045 63.526 191.18 63.1662L192.718 63.598C192.556 64.1198 192.284 64.5786 191.902 64.9744C191.519 65.3658 191.047 65.6716 190.485 65.892C189.922 66.108 189.29 66.2159 188.589 66.2159ZM196.894 52.1818V66H195.302V52.1818H196.894ZM204.156 66.2159C203.157 66.2159 202.296 65.9955 201.572 65.5547C200.852 65.1094 200.297 64.4886 199.905 63.6925C199.519 62.8918 199.325 61.9607 199.325 60.8991C199.325 59.8376 199.519 58.902 199.905 58.0923C200.297 57.2782 200.841 56.6439 201.538 56.1896C202.24 55.7308 203.059 55.5014 203.994 55.5014C204.534 55.5014 205.067 55.5914 205.593 55.7713C206.119 55.9512 206.599 56.2436 207.03 56.6484C207.462 57.0488 207.806 57.5795 208.063 58.2408C208.319 58.902 208.447 59.7161 208.447 60.6832V61.358H200.459V59.9815H206.828C206.828 59.3968 206.711 58.875 206.477 58.4162C206.248 57.9574 205.919 57.5953 205.492 57.3299C205.069 57.0645 204.57 56.9318 203.994 56.9318C203.36 56.9318 202.811 57.0893 202.348 57.4041C201.889 57.7145 201.536 58.1193 201.289 58.6186C201.041 59.1179 200.917 59.6532 200.917 60.2244V61.142C200.917 61.9247 201.052 62.5882 201.322 63.1325C201.597 63.6722 201.977 64.0838 202.463 64.3672C202.948 64.6461 203.513 64.7855 204.156 64.7855C204.574 64.7855 204.952 64.727 205.29 64.6101C205.631 64.4886 205.926 64.3087 206.173 64.0703C206.421 63.8274 206.612 63.526 206.747 63.1662L208.285 63.598C208.123 64.1198 207.851 64.5786 207.469 64.9744C207.087 65.3658 206.614 65.6716 206.052 65.892C205.49 66.108 204.858 66.2159 204.156 66.2159ZM215.08 66.2159C214.108 66.2159 213.271 65.9865 212.57 65.5277C211.868 65.0689 211.328 64.4369 210.95 63.6317C210.573 62.8266 210.384 61.9067 210.384 60.8722C210.384 59.8196 210.577 58.8907 210.964 58.0856C211.355 57.2759 211.9 56.6439 212.597 56.1896C213.298 55.7308 214.117 55.5014 215.053 55.5014C215.781 55.5014 216.438 55.6364 217.023 55.9062C217.608 56.1761 218.087 56.554 218.46 57.0398C218.833 57.5256 219.065 58.0923 219.155 58.7401H217.563C217.441 58.2678 217.171 57.8494 216.753 57.4851C216.339 57.1162 215.781 56.9318 215.08 56.9318C214.459 56.9318 213.915 57.0937 213.447 57.4176C212.984 57.737 212.622 58.189 212.361 58.7738C212.104 59.354 211.976 60.0355 211.976 60.8182C211.976 61.6188 212.102 62.3161 212.354 62.9098C212.61 63.5036 212.97 63.9646 213.433 64.293C213.901 64.6213 214.45 64.7855 215.08 64.7855C215.494 64.7855 215.869 64.7135 216.206 64.5696C216.544 64.4257 216.829 64.2188 217.063 63.9489C217.297 63.679 217.464 63.3551 217.563 62.9773H219.155C219.065 63.589 218.842 64.14 218.487 64.6303C218.136 65.1161 217.671 65.503 217.09 65.7908C216.515 66.0742 215.844 66.2159 215.08 66.2159ZM225.99 55.6364V56.9858H220.619V55.6364H225.99ZM222.184 53.1534H223.777V63.0312C223.777 63.4811 223.842 63.8184 223.972 64.0433C224.107 64.2637 224.278 64.4122 224.485 64.4886C224.697 64.5606 224.919 64.5966 225.153 64.5966C225.329 64.5966 225.473 64.5876 225.585 64.5696C225.698 64.5471 225.787 64.5291 225.855 64.5156L226.179 65.946C226.071 65.9865 225.92 66.027 225.727 66.0675C225.533 66.1125 225.288 66.1349 224.991 66.1349C224.541 66.1349 224.101 66.0382 223.669 65.8448C223.242 65.6514 222.886 65.3568 222.603 64.9609C222.324 64.5651 222.184 64.0658 222.184 63.4631V53.1534ZM234.754 69.8864C234.485 69.8864 234.244 69.8639 234.032 69.8189C233.821 69.7784 233.675 69.7379 233.594 69.6974L233.999 68.294C234.386 68.393 234.727 68.429 235.024 68.402C235.321 68.375 235.584 68.2423 235.814 68.0039C236.048 67.77 236.261 67.3899 236.455 66.8636L236.752 66.054L232.919 55.6364H234.646L237.507 63.8949H237.615L240.476 55.6364H242.203L237.804 67.5114C237.606 68.0466 237.361 68.4897 237.069 68.8406C236.776 69.1959 236.437 69.459 236.05 69.63C235.668 69.8009 235.236 69.8864 234.754 69.8864ZM248.144 66.2159C247.209 66.2159 246.388 65.9933 245.681 65.5479C244.98 65.1026 244.431 64.4796 244.035 63.679C243.644 62.8783 243.448 61.9427 243.448 60.8722C243.448 59.7926 243.644 58.8503 244.035 58.0451C244.431 57.2399 244.98 56.6147 245.681 56.1694C246.388 55.7241 247.209 55.5014 248.144 55.5014C249.08 55.5014 249.898 55.7241 250.6 56.1694C251.306 56.6147 251.855 57.2399 252.246 58.0451C252.642 58.8503 252.84 59.7926 252.84 60.8722C252.84 61.9427 252.642 62.8783 252.246 63.679C251.855 64.4796 251.306 65.1026 250.6 65.5479C249.898 65.9933 249.08 66.2159 248.144 66.2159ZM248.144 64.7855C248.855 64.7855 249.44 64.6033 249.898 64.239C250.357 63.8746 250.697 63.3956 250.917 62.8018C251.138 62.2081 251.248 61.5649 251.248 60.8722C251.248 60.1795 251.138 59.534 250.917 58.9357C250.697 58.3375 250.357 57.8539 249.898 57.4851C249.44 57.1162 248.855 56.9318 248.144 56.9318C247.433 56.9318 246.849 57.1162 246.39 57.4851C245.931 57.8539 245.592 58.3375 245.371 58.9357C245.151 59.534 245.04 60.1795 245.04 60.8722C245.04 61.5649 245.151 62.2081 245.371 62.8018C245.592 63.3956 245.931 63.8746 246.39 64.239C246.849 64.6033 247.433 64.7855 248.144 64.7855ZM261.802 61.7628V55.6364H263.394V66H261.802V64.2457H261.694C261.451 64.772 261.073 65.2196 260.561 65.5884C260.048 65.9528 259.4 66.1349 258.617 66.1349C257.97 66.1349 257.394 65.9933 256.89 65.7099C256.386 65.422 255.991 64.9902 255.703 64.4144C255.415 63.8342 255.271 63.1032 255.271 62.2216V55.6364H256.863V62.1136C256.863 62.8693 257.075 63.4721 257.497 63.9219C257.925 64.3717 258.469 64.5966 259.13 64.5966C259.526 64.5966 259.929 64.4954 260.338 64.293C260.752 64.0906 261.098 63.7802 261.377 63.3619C261.66 62.9435 261.802 62.4105 261.802 61.7628ZM266.311 66V55.6364H267.849V57.2017H267.957C268.146 56.6889 268.488 56.2728 268.983 55.9535C269.478 55.6341 270.035 55.4744 270.656 55.4744C270.773 55.4744 270.919 55.4767 271.095 55.4812C271.27 55.4857 271.403 55.4924 271.493 55.5014V57.1207C271.439 57.1072 271.315 57.087 271.122 57.06C270.933 57.0285 270.733 57.0128 270.521 57.0128C270.017 57.0128 269.568 57.1185 269.172 57.3299C268.78 57.5368 268.47 57.8247 268.241 58.1935C268.016 58.5579 267.903 58.974 267.903 59.4418V66H266.311ZM280.316 59.7656V66H278.724V55.6364H280.262V57.2557H280.397C280.64 56.7294 281.009 56.3066 281.504 55.9872C281.999 55.6634 282.637 55.5014 283.42 55.5014C284.122 55.5014 284.736 55.6454 285.262 55.9332C285.788 56.2166 286.198 56.6484 286.49 57.2287C286.782 57.8045 286.929 58.5331 286.929 59.4148V66H285.336V59.5227C285.336 58.7086 285.125 58.0743 284.702 57.62C284.279 57.1612 283.699 56.9318 282.961 56.9318C282.453 56.9318 281.999 57.042 281.598 57.2624C281.202 57.4828 280.89 57.8045 280.66 58.2273C280.431 58.6501 280.316 59.1629 280.316 59.7656ZM294.183 66.2159C293.185 66.2159 292.323 65.9955 291.599 65.5547C290.88 65.1094 290.324 64.4886 289.933 63.6925C289.546 62.8918 289.352 61.9607 289.352 60.8991C289.352 59.8376 289.546 58.902 289.933 58.0923C290.324 57.2782 290.868 56.6439 291.566 56.1896C292.267 55.7308 293.086 55.5014 294.021 55.5014C294.561 55.5014 295.094 55.5914 295.621 55.7713C296.147 55.9512 296.626 56.2436 297.058 56.6484C297.49 57.0488 297.834 57.5795 298.09 58.2408C298.346 58.902 298.475 59.7161 298.475 60.6832V61.358H290.486V59.9815H296.855C296.855 59.3968 296.738 58.875 296.504 58.4162C296.275 57.9574 295.947 57.5953 295.519 57.3299C295.097 57.0645 294.597 56.9318 294.021 56.9318C293.387 56.9318 292.838 57.0893 292.375 57.4041C291.916 57.7145 291.563 58.1193 291.316 58.6186C291.068 59.1179 290.945 59.6532 290.945 60.2244V61.142C290.945 61.9247 291.08 62.5882 291.35 63.1325C291.624 63.6722 292.004 64.0838 292.49 64.3672C292.976 64.6461 293.54 64.7855 294.183 64.7855C294.602 64.7855 294.98 64.727 295.317 64.6101C295.659 64.4886 295.953 64.3087 296.201 64.0703C296.448 63.8274 296.639 63.526 296.774 63.1662L298.313 63.598C298.151 64.1198 297.879 64.5786 297.496 64.9744C297.114 65.3658 296.642 65.6716 296.079 65.892C295.517 66.108 294.885 66.2159 294.183 66.2159ZM303.245 66L300.087 55.6364H301.76L304.001 63.571H304.108L306.322 55.6364H308.022L310.208 63.544H310.316L312.556 55.6364H314.229L311.072 66H309.506L307.239 58.0384H307.077L304.81 66H303.245ZM323.675 57.9574L322.245 58.3622C322.155 58.1238 322.022 57.8922 321.847 57.6673C321.676 57.4379 321.442 57.2489 321.145 57.1005C320.848 56.9521 320.468 56.8778 320.005 56.8778C319.371 56.8778 318.842 57.024 318.419 57.3164C318.001 57.6043 317.792 57.9709 317.792 58.4162C317.792 58.812 317.936 59.1246 318.224 59.354C318.511 59.5835 318.961 59.7746 319.573 59.9276L321.111 60.3054C322.038 60.5303 322.728 60.8744 323.183 61.3377C323.637 61.7965 323.864 62.388 323.864 63.1122C323.864 63.706 323.693 64.2367 323.351 64.7045C323.014 65.1723 322.542 65.5412 321.934 65.8111C321.327 66.081 320.621 66.2159 319.816 66.2159C318.759 66.2159 317.884 65.9865 317.191 65.5277C316.499 65.0689 316.06 64.3987 315.876 63.517L317.387 63.1392C317.531 63.697 317.803 64.1153 318.203 64.3942C318.608 64.6731 319.137 64.8125 319.789 64.8125C320.531 64.8125 321.12 64.6551 321.557 64.3402C321.997 64.0208 322.218 63.6385 322.218 63.1932C322.218 62.8333 322.092 62.532 321.84 62.2891C321.588 62.0417 321.201 61.8572 320.68 61.7358L318.952 61.331C318.003 61.1061 317.306 60.7575 316.861 60.2852C316.42 59.8084 316.199 59.2124 316.199 58.4972C316.199 57.9124 316.364 57.3951 316.692 56.9453C317.025 56.4955 317.477 56.1424 318.048 55.886C318.624 55.6296 319.276 55.5014 320.005 55.5014C321.03 55.5014 321.836 55.7263 322.42 56.1761C323.01 56.6259 323.428 57.2197 323.675 57.9574Z" fill="#6B6B6B" fill-opacity="0.54"/>
</svg>
